<svg width="657" height="659" viewBox="0 0 657 659" fill="none" xmlns="http://www.w3.org/2000/svg">
<circle cx="43" cy="47" r="5" fill="#20272F"/>
<circle cx="165" cy="47" r="5" fill="#20272F"/>
<circle cx="286" cy="47" r="5" fill="#20272F"/>
<circle cx="409" cy="47" r="5" fill="#20272F"/>
<circle cx="531" cy="47" r="5" fill="#20272F"/>
<circle cx="652" cy="47" r="5" fill="#20272F"/>
<circle cx="43" cy="134" r="5" fill="#20272F"/>
<circle cx="165" cy="134" r="5" fill="#20272F"/>
<circle cx="286" cy="134" r="5" fill="#20272F"/>
<circle cx="409" cy="134" r="5" fill="#20272F"/>
<circle cx="531" cy="134" r="5" fill="#20272F"/>
<circle cx="652" cy="134" r="5" fill="#20272F"/>
<circle cx="43" cy="221" r="5" fill="#20272F"/>
<circle cx="165" cy="221" r="5" fill="#20272F"/>
<circle cx="286" cy="221" r="5" fill="#20272F"/>
<circle cx="409" cy="221" r="5" fill="#20272F"/>
<circle cx="531" cy="221" r="5" fill="#20272F"/>
<circle cx="652" cy="221" r="5" fill="#20272F"/>
<circle cx="43" cy="307" r="5" fill="#20272F"/>
<circle cx="165" cy="307" r="5" fill="#20272F"/>
<circle cx="286" cy="307" r="5" fill="#20272F"/>
<circle cx="409" cy="307" r="5" fill="#20272F"/>
<circle cx="531" cy="307" r="5" fill="#20272F"/>
<circle cx="652" cy="307" r="5" fill="#20272F"/>
<circle cx="43" cy="394" r="5" fill="#20272F"/>
<circle cx="165" cy="394" r="5" fill="#20272F"/>
<circle cx="286" cy="394" r="5" fill="#20272F"/>
<circle cx="409" cy="394" r="5" fill="#20272F"/>
<circle cx="531" cy="394" r="5" fill="#20272F"/>
<circle cx="652" cy="394" r="5" fill="#20272F"/>
<circle cx="43" cy="480" r="5" fill="#20272F"/>
<circle cx="165" cy="480" r="5" fill="#20272F"/>
<circle cx="286" cy="480" r="5" fill="#20272F"/>
<circle cx="409" cy="480" r="5" fill="#20272F"/>
<circle cx="531" cy="480" r="5" fill="#20272F"/>
<circle cx="652" cy="480" r="5" fill="#20272F"/>
<circle cx="43" cy="567" r="5" fill="#20272F"/>
<circle cx="165" cy="567" r="5" fill="#20272F"/>
<circle cx="286" cy="567" r="5" fill="#20272F"/>
<circle cx="409" cy="567" r="5" fill="#20272F"/>
<circle cx="531" cy="567" r="5" fill="#20272F"/>
<circle cx="652" cy="567" r="5" fill="#20272F"/>
<circle cx="43" cy="654" r="5" fill="#20272F"/>
<circle cx="165" cy="654" r="5" fill="#20272F"/>
<circle cx="286" cy="654" r="5" fill="#20272F"/>
<circle cx="409" cy="654" r="5" fill="#20272F"/>
<circle cx="531" cy="654" r="5" fill="#20272F"/>
<circle cx="652" cy="654" r="5" fill="#20272F"/>
</svg>
