<svg  viewBox="0 0 1440 1019" fill="none" xmlns="http://www.w3.org/2000/svg">
<line x1="-704.25" y1="6.57645" x2="1073.24" y2="-1019.66" stroke="#272E35"/>
<line x1="-684.25" y1="41.2174" x2="1093.24" y2="-985.018" stroke="#272E35"/>
<line x1="-664.25" y1="75.8585" x2="1113.24" y2="-950.377" stroke="#272E35"/>
<line x1="-644.25" y1="110.499" x2="1133.24" y2="-915.736" stroke="#272E35"/>
<line x1="-624.25" y1="145.141" x2="1153.24" y2="-881.095" stroke="#272E35"/>
<line x1="-604.25" y1="179.782" x2="1173.24" y2="-846.454" stroke="#272E35"/>
<line x1="-584.25" y1="214.423" x2="1193.24" y2="-811.813" stroke="#272E35"/>
<line x1="-564.25" y1="249.064" x2="1213.24" y2="-777.172" stroke="#272E35"/>
<line x1="-544.25" y1="283.705" x2="1233.24" y2="-742.531" stroke="#272E35"/>
<line x1="-524.25" y1="318.346" x2="1253.24" y2="-707.89" stroke="#272E35"/>
<line x1="-504.25" y1="352.987" x2="1273.24" y2="-673.248" stroke="#272E35"/>
<line x1="-484.25" y1="387.628" x2="1293.24" y2="-638.607" stroke="#272E35"/>
<line x1="-464.25" y1="422.269" x2="1313.24" y2="-603.966" stroke="#272E35"/>
<line x1="-444.25" y1="456.91" x2="1333.24" y2="-569.325" stroke="#272E35"/>
<line x1="-424.25" y1="491.551" x2="1353.24" y2="-534.684" stroke="#272E35"/>
<line x1="-404.25" y1="526.192" x2="1373.24" y2="-500.043" stroke="#272E35"/>
<line x1="-384.25" y1="560.833" x2="1393.24" y2="-465.402" stroke="#272E35"/>
<line x1="-364.25" y1="595.474" x2="1413.24" y2="-430.761" stroke="#272E35"/>
<line x1="-344.25" y1="630.115" x2="1433.24" y2="-396.12" stroke="#272E35"/>
<line x1="-324.25" y1="664.756" x2="1453.24" y2="-361.479" stroke="#272E35"/>
<line x1="-304.25" y1="699.397" x2="1473.24" y2="-326.838" stroke="#272E35"/>
<line x1="-284.25" y1="734.038" x2="1493.24" y2="-292.197" stroke="#272E35"/>
<line x1="-264.25" y1="768.679" x2="1513.24" y2="-257.556" stroke="#272E35"/>
<line x1="-244.25" y1="803.32" x2="1533.24" y2="-222.915" stroke="#272E35"/>
<line x1="-224.25" y1="837.961" x2="1553.24" y2="-188.274" stroke="#272E35"/>
<line x1="-204.25" y1="872.602" x2="1573.24" y2="-153.633" stroke="#272E35"/>
<line x1="-184.25" y1="907.243" x2="1593.24" y2="-118.992" stroke="#272E35"/>
<line x1="-164.25" y1="941.884" x2="1613.24" y2="-84.3512" stroke="#272E35"/>
<line x1="-144.25" y1="976.525" x2="1633.24" y2="-49.7102" stroke="#272E35"/>
<line x1="-124.25" y1="1011.17" x2="1653.24" y2="-15.0692" stroke="#272E35"/>
<line x1="-104.25" y1="1045.81" x2="1673.24" y2="19.5718" stroke="#272E35"/>
<line x1="-84.25" y1="1080.45" x2="1693.24" y2="54.2128" stroke="#272E35"/>
</svg>
